{
    "asset" : {
        "generator" : "Khronos glTF Blender I/O v3.3.27",
        "version" : "2.0"
    },
    "extensionsUsed" : [
        "KHR_materials_specular",
        "KHR_materials_ior"
    ],
    "scene" : 0,
    "scenes" : [
        {
            "name" : "Scene",
            "nodes" : [
                4,
                10,
                16
            ]
        }
    ],
    "nodes" : [
        {
            "name" : "Magazine",
            "rotation" : [
                -0.3282957971096039,
                -0.6262761354446411,
                0.3282955586910248,
                0.6262763738632202
            ],
            "scale" : [
                1,
                1,
                0.9999999403953552
            ],
            "translation" : [
                -1.2824564521451975e-08,
                0.15871834754943848,
                0.06258238106966019
            ]
        },
        {
            "name" : "Trigger",
            "rotation" : [
                -0.0007266071625053883,
                0.8336480855941772,
                -0.5522944331169128,
                0.0010973025346174836
            ],
            "scale" : [
                1,
                0.9999999403953552,
                1
            ],
            "translation" : [
                -9.761079944325957e-09,
                0.055359479039907455,
                0.06118537858128548
            ]
        },
        {
            "children" : [
                0,
                1
            ],
            "name" : "Body",
            "rotation" : [
                -0.7071068286895752,
                1.208196351853985e-07,
                1.208196351853985e-07,
                0.7071068286895752
            ],
            "translation" : [
                2.8909299842894143e-08,
                -0.057841941714286804,
                0.05719812586903572
            ]
        },
        {
            "mesh" : 0,
            "name" : "AK-47",
            "skin" : 0
        },
        {
            "children" : [
                3,
                2
            ],
            "name" : "AK_Armature"
        },
        {
            "name" : "Trigger",
            "rotation" : [
                -0.5745742321014404,
                -0.0011449838057160378,
                0.0008035567007027566,
                0.8184512853622437
            ],
            "scale" : [
                0.9999999403953552,
                0.9999998807907104,
                0.9999999403953552
            ],
            "translation" : [
                -9.68056657058014e-09,
                0.04469195008277893,
                0.027358150109648705
            ]
        },
        {
            "name" : "Pump",
            "rotation" : [
                0,
                0,
                -0.7071071863174438,
                0.707106351852417
            ],
            "translation" : [
                -0.040166325867176056,
                0.5362161993980408,
                0.02993258461356163
            ]
        },
        {
            "name" : "Charging Handle",
            "rotation" : [
                0,
                0,
                -0.7071069478988647,
                0.7071065902709961
            ],
            "translation" : [
                0.013496961444616318,
                0.1543034017086029,
                0.06589325517416
            ]
        },
        {
            "children" : [
                5,
                6,
                7
            ],
            "name" : "Body",
            "rotation" : [
                -0.7071068286895752,
                8.315360844335373e-08,
                8.315360844335373e-08,
                0.7071068286895752
            ],
            "translation" : [
                2.0048616988788126e-08,
                -0.027438199147582054,
                0.04427528381347656
            ]
        },
        {
            "mesh" : 1,
            "name" : "SPAS-12",
            "skin" : 1
        },
        {
            "children" : [
                9,
                8
            ],
            "name" : "SPAS-12_Armature"
        },
        {
            "name" : "Trigger",
            "rotation" : [
                -3.60452531822375e-07,
                -8.328339617946767e-08,
                0.5581222176551819,
                0.8297587633132935
            ],
            "scale" : [
                1,
                0.9999999403953552,
                1
            ],
            "translation" : [
                -0.007195589132606983,
                0.03790847212076187,
                1.867733523397419e-09
            ]
        },
        {
            "name" : "Slide",
            "rotation" : [
                0.7071065902709961,
                -1.589235409937828e-07,
                -2.2647166986189404e-07,
                0.7071069478988647
            ],
            "scale" : [
                1,
                0.9999999403953552,
                0.9999999403953552
            ],
            "translation" : [
                0.029113709926605225,
                0.1786247044801712,
                -0.01971237175166607
            ]
        },
        {
            "name" : "Magazine",
            "rotation" : [
                -5.682509822690918e-07,
                5.79034455938654e-08,
                0.8218787312507629,
                0.5696625709533691
            ],
            "scale" : [
                1.0000001192092896,
                1.0000001192092896,
                1
            ],
            "translation" : [
                -0.022292830049991608,
                0.0008174851536750793,
                8.405828033630769e-09
            ]
        },
        {
            "children" : [
                11,
                12,
                13
            ],
            "name" : "Body",
            "rotation" : [
                -0.5000000596046448,
                -0.49999988079071045,
                0.5,
                0.5000001192092896
            ],
            "translation" : [
                1.3010828858739387e-08,
                0.008384748362004757,
                0.038255415856838226
            ]
        },
        {
            "mesh" : 2,
            "name" : "M1911",
            "skin" : 2
        },
        {
            "children" : [
                15,
                14
            ],
            "name" : "PistolArmature"
        }
    ],
    "materials" : [
        {
            "doubleSided" : true,
            "extensions" : {
                "KHR_materials_specular" : {
                    "specularColorFactor" : [
                        0,
                        0,
                        0
                    ]
                },
                "KHR_materials_ior" : {
                    "ior" : 1.4500000476837158
                }
            },
            "name" : "ak_material",
            "pbrMetallicRoughness" : {
                "baseColorTexture" : {
                    "index" : 0
                },
                "metallicFactor" : 0
            }
        },
        {
            "doubleSided" : true,
            "extensions" : {
                "KHR_materials_specular" : {
                    "specularColorFactor" : [
                        0,
                        0,
                        0
                    ]
                },
                "KHR_materials_ior" : {
                    "ior" : 1.4500000476837158
                }
            },
            "name" : "shotgun__material",
            "pbrMetallicRoughness" : {
                "baseColorTexture" : {
                    "index" : 1
                },
                "metallicFactor" : 0
            }
        },
        {
            "doubleSided" : true,
            "extensions" : {
                "KHR_materials_specular" : {
                    "specularColorFactor" : [
                        0,
                        0,
                        0
                    ]
                },
                "KHR_materials_ior" : {
                    "ior" : 1.4500000476837158
                }
            },
            "name" : "pistol_material",
            "pbrMetallicRoughness" : {
                "baseColorTexture" : {
                    "index" : 2
                },
                "metallicFactor" : 0
            }
        }
    ],
    "meshes" : [
        {
            "name" : "Cube.001",
            "primitives" : [
                {
                    "attributes" : {
                        "POSITION" : 0,
                        "NORMAL" : 1,
                        "TEXCOORD_0" : 2,
                        "JOINTS_0" : 3,
                        "WEIGHTS_0" : 4
                    },
                    "indices" : 5,
                    "material" : 0
                }
            ]
        },
        {
            "name" : "Cube.004",
            "primitives" : [
                {
                    "attributes" : {
                        "POSITION" : 7,
                        "NORMAL" : 8,
                        "TEXCOORD_0" : 9,
                        "JOINTS_0" : 10,
                        "WEIGHTS_0" : 11
                    },
                    "indices" : 12,
                    "material" : 1
                }
            ]
        },
        {
            "name" : "Cube.006",
            "primitives" : [
                {
                    "attributes" : {
                        "POSITION" : 14,
                        "NORMAL" : 15,
                        "TEXCOORD_0" : 16,
                        "JOINTS_0" : 17,
                        "WEIGHTS_0" : 18
                    },
                    "indices" : 19,
                    "material" : 2
                }
            ]
        }
    ],
    "textures" : [
        {
            "sampler" : 0,
            "source" : 0
        },
        {
            "sampler" : 0,
            "source" : 1
        },
        {
            "sampler" : 0,
            "source" : 2
        }
    ],
    "images" : [
        {
            "mimeType" : "image/png",
            "name" : "AKTexture",
            "uri" : "textures/AKTexture.png"
        },
        {
            "mimeType" : "image/png",
            "name" : "Shotgun_Texture",
            "uri" : "textures/Shotgun_Texture.png"
        },
        {
            "mimeType" : "image/png",
            "name" : "Pistol_Texture",
            "uri" : "textures/Pistol_Texture.png"
        }
    ],
    "skins" : [
        {
            "inverseBindMatrices" : 6,
            "joints" : [
                2,
                0,
                1
            ],
            "name" : "AK_Armature"
        },
        {
            "inverseBindMatrices" : 13,
            "joints" : [
                8,
                5,
                6,
                7
            ],
            "name" : "SPAS-12_Armature"
        },
        {
            "inverseBindMatrices" : 20,
            "joints" : [
                14,
                11,
                12,
                13
            ],
            "name" : "PistolArmature"
        }
    ],
    "accessors" : [
        {
            "bufferView" : 0,
            "componentType" : 5126,
            "count" : 1658,
            "max" : [
                0.016800642013549805,
                0.09283420443534851,
                0.3529477119445801
            ],
            "min" : [
                -0.016800660640001297,
                -0.17951321601867676,
                -0.5932544469833374
            ],
            "type" : "VEC3"
        },
        {
            "bufferView" : 1,
            "componentType" : 5126,
            "count" : 1658,
            "type" : "VEC3"
        },
        {
            "bufferView" : 2,
            "componentType" : 5126,
            "count" : 1658,
            "type" : "VEC2"
        },
        {
            "bufferView" : 3,
            "componentType" : 5121,
            "count" : 1658,
            "type" : "VEC4"
        },
        {
            "bufferView" : 4,
            "componentType" : 5126,
            "count" : 1658,
            "type" : "VEC4"
        },
        {
            "bufferView" : 5,
            "componentType" : 5123,
            "count" : 1956,
            "type" : "SCALAR"
        },
        {
            "bufferView" : 6,
            "componentType" : 5126,
            "count" : 3,
            "type" : "MAT4"
        },
        {
            "bufferView" : 7,
            "componentType" : 5126,
            "count" : 1313,
            "max" : [
                0.025831373408436775,
                0.08183636516332626,
                0.09552955627441406
            ],
            "min" : [
                -0.025831714272499084,
                -0.10742209106683731,
                -0.668410062789917
            ],
            "type" : "VEC3"
        },
        {
            "bufferView" : 8,
            "componentType" : 5126,
            "count" : 1313,
            "type" : "VEC3"
        },
        {
            "bufferView" : 9,
            "componentType" : 5126,
            "count" : 1313,
            "type" : "VEC2"
        },
        {
            "bufferView" : 10,
            "componentType" : 5121,
            "count" : 1313,
            "type" : "VEC4"
        },
        {
            "bufferView" : 11,
            "componentType" : 5126,
            "count" : 1313,
            "type" : "VEC4"
        },
        {
            "bufferView" : 12,
            "componentType" : 5123,
            "count" : 2145,
            "type" : "SCALAR"
        },
        {
            "bufferView" : 13,
            "componentType" : 5126,
            "count" : 4,
            "type" : "MAT4"
        },
        {
            "bufferView" : 14,
            "componentType" : 5126,
            "count" : 1202,
            "max" : [
                0.018552472814917564,
                0.05638983100652695,
                0.10468098521232605
            ],
            "min" : [
                -0.0185525044798851,
                -0.11624624580144882,
                -0.15840153396129608
            ],
            "type" : "VEC3"
        },
        {
            "bufferView" : 15,
            "componentType" : 5126,
            "count" : 1202,
            "type" : "VEC3"
        },
        {
            "bufferView" : 16,
            "componentType" : 5126,
            "count" : 1202,
            "type" : "VEC2"
        },
        {
            "bufferView" : 17,
            "componentType" : 5121,
            "count" : 1202,
            "type" : "VEC4"
        },
        {
            "bufferView" : 18,
            "componentType" : 5126,
            "count" : 1202,
            "type" : "VEC4"
        },
        {
            "bufferView" : 19,
            "componentType" : 5123,
            "count" : 1362,
            "type" : "SCALAR"
        },
        {
            "bufferView" : 20,
            "componentType" : 5126,
            "count" : 4,
            "type" : "MAT4"
        }
    ],
    "bufferViews" : [
        {
            "buffer" : 0,
            "byteLength" : 19896,
            "byteOffset" : 0,
            "target" : 34962
        },
        {
            "buffer" : 0,
            "byteLength" : 19896,
            "byteOffset" : 19896,
            "target" : 34962
        },
        {
            "buffer" : 0,
            "byteLength" : 13264,
            "byteOffset" : 39792,
            "target" : 34962
        },
        {
            "buffer" : 0,
            "byteLength" : 6632,
            "byteOffset" : 53056,
            "target" : 34962
        },
        {
            "buffer" : 0,
            "byteLength" : 26528,
            "byteOffset" : 59688,
            "target" : 34962
        },
        {
            "buffer" : 0,
            "byteLength" : 3912,
            "byteOffset" : 86216,
            "target" : 34963
        },
        {
            "buffer" : 0,
            "byteLength" : 192,
            "byteOffset" : 90128
        },
        {
            "buffer" : 0,
            "byteLength" : 15756,
            "byteOffset" : 90320,
            "target" : 34962
        },
        {
            "buffer" : 0,
            "byteLength" : 15756,
            "byteOffset" : 106076,
            "target" : 34962
        },
        {
            "buffer" : 0,
            "byteLength" : 10504,
            "byteOffset" : 121832,
            "target" : 34962
        },
        {
            "buffer" : 0,
            "byteLength" : 5252,
            "byteOffset" : 132336,
            "target" : 34962
        },
        {
            "buffer" : 0,
            "byteLength" : 21008,
            "byteOffset" : 137588,
            "target" : 34962
        },
        {
            "buffer" : 0,
            "byteLength" : 4290,
            "byteOffset" : 158596,
            "target" : 34963
        },
        {
            "buffer" : 0,
            "byteLength" : 256,
            "byteOffset" : 162888
        },
        {
            "buffer" : 0,
            "byteLength" : 14424,
            "byteOffset" : 163144,
            "target" : 34962
        },
        {
            "buffer" : 0,
            "byteLength" : 14424,
            "byteOffset" : 177568,
            "target" : 34962
        },
        {
            "buffer" : 0,
            "byteLength" : 9616,
            "byteOffset" : 191992,
            "target" : 34962
        },
        {
            "buffer" : 0,
            "byteLength" : 4808,
            "byteOffset" : 201608,
            "target" : 34962
        },
        {
            "buffer" : 0,
            "byteLength" : 19232,
            "byteOffset" : 206416,
            "target" : 34962
        },
        {
            "buffer" : 0,
            "byteLength" : 2724,
            "byteOffset" : 225648,
            "target" : 34963
        },
        {
            "buffer" : 0,
            "byteLength" : 256,
            "byteOffset" : 228372
        }
    ],
    "samplers" : [
        {
            "magFilter" : 9729,
            "minFilter" : 9987
        }
    ],
    "buffers" : [
        {
            "byteLength" : 228628,
            "uri" : "weapons.bin"
        }
    ]
}
